<?xml version="1.0" encoding="utf-8"?>
<!-- Generator: Adobe Illustrator 19.0.0, SVG Export Plug-In . SVG Version: 6.00 Build 0)  -->
<svg version="1.1" id="Layer_1" xmlns="http://www.w3.org/2000/svg" xmlns:xlink="http://www.w3.org/1999/xlink" x="0px" y="0px"
	 viewBox="0 0 138.9 35.1" style="enable-background:new 0 0 138.9 35.1;" xml:space="preserve">
<style type="text/css">
	.st0{fill:#48499E;}
</style>
<path class="st0" d="M78.8,21.4L78.8,21.4c0,7.5-6,13.6-13.3,13.6s-13.3-6.1-13.3-13.6l0,0V9.8c0,0,6.3,1.6,6.4,8.3v3.2
	c0,4.1,3.1,7.4,6.9,7.4c3.8,0,6.9-3.3,6.9-7.4v-6.7v0v0.1c0.3-5.6,5-7.5,6.3-8h0.1v7.9V21.4z M44.5,7.9c1.8,0,3.4,0.3,5,0.9V16
	c-1.3-1.1-3.1-1.8-5-1.8c-4.2,0-7.6,3.3-7.6,7.4V35h-6.4V21.8v-0.2V10.4c0,0,2.6,0.1,4.3,1.3C37.3,9.4,40.7,7.9,44.5,7.9 M13.9,28.9
	c-4.3,0-7.7-3.4-7.7-7.5c0-4.1,3.5-7.5,7.7-7.5c4.3,0,7.7,3.4,7.7,7.5C21.6,25.6,18.2,28.9,13.9,28.9 M13.9,7.9C6.2,7.9,0,14,0,21.5
	C0,28.9,6.2,35,13.9,35c3.2,0,6.1-1,8.4-2.8c1.4,2.3,5.5,2.8,5.5,2.8v-2.2V22v-0.6C27.8,14,21.6,7.9,13.9,7.9 M124.9,28.9
	c-4.3,0-7.7-3.4-7.7-7.5c0-4.1,3.5-7.5,7.7-7.5c4.3,0,7.7,3.4,7.7,7.5C132.7,25.6,129.2,28.9,124.9,28.9 M124.9,7.9
	c-7.7,0-13.9,6.1-13.9,13.5c0,7.5,6.2,13.5,13.9,13.5c3.2,0,6.1-1,8.4-2.8c1.4,2.3,5.5,2.8,5.5,2.8v-2.2V22v-0.6
	C138.9,14,132.6,7.9,124.9,7.9 M95.5,28.9c-4.3,0-7.7-3.4-7.7-7.5c0-4.1,3.5-7.5,7.7-7.5c4.3,0,7.7,3.4,7.7,7.5
	C103.2,25.6,99.8,28.9,95.5,28.9 M95.5,7.9c-2.8,0-5.5,0.8-7.7,2.2V8c-0.3-5.6-4.9-7.5-6.1-8h-0.1v21.5v0.9v10.5v2.3
	c0,0,4.2-0.4,5.7-2.7c2.3,1.6,5.1,2.6,8.2,2.6c7.7,0,13.9-6.1,13.9-13.5C109.4,14,103.2,7.9,95.5,7.9"/>
</svg>
