<?xml version="1.0" encoding="utf-8"?>
<!-- Generator: Adobe Illustrator 19.0.0, SVG Export Plug-In . SVG Version: 6.00 Build 0)  -->
<svg version="1.1" id="Layer_1" xmlns="http://www.w3.org/2000/svg" xmlns:xlink="http://www.w3.org/1999/xlink" x="0px" y="0px"
	 viewBox="0 0 158.6 52" style="enable-background:new 0 0 158.6 52;" xml:space="preserve">
<style type="text/css">
	.st0{fill:#48499E;}
</style>
<g id="XMLID_86_">
	<g>
		<rect x="26.7" y="34.2" class="st0" width="4.1" height="16.4"/>
		<path class="st0" d="M64.2,38.9C64,38.8,62.7,38,60.7,38c-2.7,0-4.5,1.9-4.5,4.4c0,2.4,1.8,4.4,4.5,4.4c1.9,0,3.3-0.8,3.5-0.9v4.4
			c-0.5,0.1-1.9,0.6-3.8,0.6c-4.7,0-8.7-3.2-8.7-8.5c0-4.9,3.7-8.5,8.7-8.5c1.9,0,3.4,0.5,3.8,0.6V38.9z"/>
		<path class="st0" d="M21,38.9c-0.2-0.1-1.5-0.9-3.5-0.9c-2.7,0-4.5,1.9-4.5,4.4c0,2.4,1.8,4.4,4.5,4.4c1.9,0,3.3-0.8,3.5-0.9v4.4
			c-0.5,0.1-1.9,0.6-3.8,0.6c-4.6,0-8.7-3.2-8.7-8.5c0-4.9,3.7-8.5,8.7-8.5c1.9,0,3.4,0.5,3.8,0.6V38.9z"/>
		<path class="st0" d="M85.8,42.4c0,4.7-3.6,8.5-8.7,8.5c-5,0-8.7-3.8-8.7-8.5c0-4.7,3.6-8.5,8.7-8.5C82.2,33.9,85.8,37.7,85.8,42.4
			 M77.2,38.1c-2.5,0-4.3,1.9-4.3,4.3c0,2.4,1.8,4.3,4.3,4.3c2.5,0,4.3-1.9,4.3-4.3C81.5,40,79.6,38.1,77.2,38.1"/>
		<path class="st0" d="M46.5,37.9c-0.1,0-1.8-0.5-3.2-0.5c-1.7,0-2.6,0.6-2.6,1.3c0,1,1.2,1.3,1.9,1.6l1.1,0.4
			c2.7,0.8,3.9,2.7,3.9,4.7c0,4.1-3.6,5.5-6.8,5.5c-2.2,0-4.3-0.4-4.5-0.4v-3.8c0.4,0.1,2.1,0.6,3.9,0.6c2.1,0,3-0.6,3-1.5
			c0-0.8-0.8-1.3-1.8-1.6c-0.3-0.1-0.6-0.2-0.9-0.3c-2.3-0.7-4.2-2.1-4.2-4.8c0-3.1,2.3-5.1,6.1-5.1c2,0,3.9,0.5,4,0.5V37.9z"/>
		<path class="st0" d="M4.1,16.6c0-1.1-0.9-2-2.1-2c-1.1,0-2.1,0.9-2.1,2v4.3c0,1.1,0.9,2,2.1,2c1.1,0,2.1-0.9,2.1-2V16.6z"/>
		<path class="st0" d="M15.4,10.9c0-1.1-0.9-2-2.1-2c-1.1,0-2.1,0.9-2.1,2v10c0,1.1,0.9,2,2.1,2c1.1,0,2.1-0.9,2.1-2V10.9z"/>
		<path class="st0" d="M26.7,3.2c0-1.1-0.9-2-2.1-2c-1.1,0-2.1,0.9-2.1,2V25c0,1.1,0.9,2.1,2.1,2.1c1.1,0,2.1-0.9,2.1-2.1V3.2z"/>
		<path class="st0" d="M38,10.9c0-1.1-0.9-2-2.1-2c-1.1,0-2.1,0.9-2.1,2v10c0,1.1,0.9,2,2.1,2c1.1,0,2.1-0.9,2.1-2V10.9z"/>
		<path class="st0" d="M49.2,16.6c0-1.1-0.9-2-2-2c-1.1,0-2.1,0.9-2.1,2v4.3c0,1.1,0.9,2,2.1,2c1.1,0,2-0.9,2-2V16.6z"/>
		<path class="st0" d="M60.5,10.9c0-1.1-0.9-2-2-2c-1.1,0-2,0.9-2,2v10c0,1.1,0.9,2,2,2c1.1,0,2-0.9,2-2V10.9z"/>
		<path class="st0" d="M71.8,3.2c0-1.1-0.9-2-2-2c-1.1,0-2,0.9-2,2V25c0,1.1,0.9,2.1,2,2.1c1.1,0,2-0.9,2-2.1V3.2z"/>
		<path class="st0" d="M83.1,10.9c0-1.1-0.9-2-2.1-2c-1.1,0-2,0.9-2,2v10c0,1.1,0.9,2,2,2c1.2,0,2.1-0.9,2.1-2V10.9z"/>
		<path class="st0" d="M94.3,16.6c0-1.1-0.9-2-2-2c-1.1,0-2,0.9-2,2v4.3c0,1.1,0.9,2,2,2c1.1,0,2-0.9,2-2V16.6z"/>
		<polygon class="st0" points="92,48.4 92,48.7 91.2,48.7 91.2,50.6 90.9,50.6 90.9,48.7 90.2,48.7 90.2,48.4 		"/>
		<polygon class="st0" points="92.1,48.4 92.6,48.4 93.2,50.2 93.3,50.2 93.9,48.4 94.3,48.4 94.3,50.6 94,50.6 94,48.8 94,48.8 
			93.4,50.6 93.1,50.6 92.4,48.8 92.4,48.8 92.4,50.6 92.1,50.6 		"/>
	</g>
	<g>
		
			<image style="overflow:visible;" width="900" height="900" xlink:href="6E040FD9.png"  transform="matrix(5.782598e-002 0 0 5.782598e-002 106.5359 0)">
		</image>
	</g>
</g>
</svg>
