<?xml version="1.0" encoding="utf-8"?>
<!-- Generator: Adobe Illustrator 19.0.0, SVG Export Plug-In . SVG Version: 6.00 Build 0)  -->
<svg version="1.1" id="Layer_1" xmlns="http://www.w3.org/2000/svg" xmlns:xlink="http://www.w3.org/1999/xlink" x="0px" y="0px"
	 viewBox="0 0 205.5 53.5" style="enable-background:new 0 0 205.5 53.5;" xml:space="preserve">
<style type="text/css">
	.st0{fill:#48499E;}
</style>
<g id="Icons_1_">
	<g>
		<path id="XMLID_286_" class="st0" d="M102.7,32.7l-5.4-3.1L97,30.1C95.8,32,94.1,33,92.1,33c-3.5,0-6.1-2.7-6.1-6.1
			s2.7-6.1,6.1-6.1c2.1,0,3.7,0.9,4.9,2.9l0.4,0.6l5.4-3.1l-0.4-0.7c-2.6-3.7-5.9-5.5-10.2-5.5c-8.1,0-12.5,6.1-12.5,11.9
			S84.1,39,92.2,39c4.1,0,8-2.1,10.2-5.5L102.7,32.7z"/>
		<path class="st0" d="M102.5,38.8h7.4l2.2-5.5h11.1l2.2,5.5h7.4L119.4,7h-6.6l1.8,4.2L102.5,38.8 M117.6,19.5l3,7.5h-6L117.6,19.5z
			"/>
		<path id="XMLID_245_" class="st0" d="M135.7,38.8h6.5V24.6h4.2v-6h-4.2v-2.8c0-1.2,0.8-2.5,2.3-2.5c0.8,0,1.3,0.1,1.8,0.3l0.7,0.3
			l2.7-5.8l-0.8-0.3c-1.2-0.4-2.9-0.7-4-0.7c-2.9,0-5.4,1-6.9,2.8c-1.5,1.6-2.2,3.8-2.2,6.1v2.6h-2.9v6h2.8L135.7,38.8z"/>
		<polygon id="XMLID_244_" class="st0" points="49.1,6.8 49.1,38.8 56.2,38.8 56.2,20.5 63,25.6 69.8,20.5 69.8,38.8 76.8,38.8 
			76.8,6.8 63,17.3 		"/>
		<path class="st0" d="M160.8,15c-8.1,0-12.5,6.1-12.5,11.9s4.4,11.9,12.5,11.9l0,0l0,0c3.7,0,7.3-1.8,9.9-4.8l-5.2-2.9
			c-1.3,1.3-3,2.1-4.8,2.1c-2.7,0-5-1.8-5.6-4h17.5v-1.6C172.6,18.9,165.7,15,160.8,15z M155.2,23.9c0.9-2.2,2.7-3.5,5-3.5
			s4.2,1.2,5.2,3.5H155.2z"/>
		<path class="st0" d="M187.1,15c-8.1,0-12.5,6.1-12.5,11.9s4.4,11.9,12.5,11.9l0,0l0,0c3.7,0,7.3-1.8,9.9-4.8l-5.2-2.9
			c-1.3,1.3-3,2.1-4.8,2.1c-2.7,0-5-1.8-5.6-4h17.5v-1.6C198.9,18.9,192,15,187.1,15z M181.5,24c0.9-2.2,2.7-3.5,5-3.5
			s4.2,1.2,5.2,3.5H181.5z"/>
		<path id="XMLID_239_" class="st0" d="M198.1,13.8h2.7v0.6h-1.1v2.9h-0.6v-2.9h-1.1v-0.6H198.1z"/>
		<path id="XMLID_238_" class="st0" d="M201.2,13.8h0.8l0.9,2.7l0,0l0.9-2.7h0.8v3.3h-0.3v-2.6l0,0l-0.9,2.6h-0.4l-1.1-2.6l0,0v2.6
			h-0.6V13.8z"/>
		<polygon id="XMLID_237_" class="st0" points="8.2,34 8.2,17.9 18.3,22.7 18.3,14.8 1,6.8 1,38.6 18.3,46.7 18.3,38.8 		"/>
		<polygon id="XMLID_236_" class="st0" points="28.6,34 28.6,17.9 18.3,22.7 18.3,14.8 35.6,6.8 35.6,38.6 18.3,46.7 18.3,38.8 		
			"/>
	</g>
</g>
</svg>
