<?xml version="1.0" encoding="utf-8"?>
<!-- Generator: Adobe Illustrator 19.0.0, SVG Export Plug-In . SVG Version: 6.00 Build 0)  -->
<svg version="1.1" id="Layer_1" xmlns="http://www.w3.org/2000/svg" xmlns:xlink="http://www.w3.org/1999/xlink" x="0px" y="0px"
	 viewBox="0 0 172.4 76.1" style="enable-background:new 0 0 172.4 76.1;" xml:space="preserve">
<style type="text/css">
	.st0{clip-path:url(#SVGID_2_);}
	.st1{clip-path:url(#SVGID_4_);fill:#FFFFFF;}
	.st2{clip-path:url(#SVGID_6_);fill:#FFFFFF;}
	.st3{clip-path:url(#SVGID_8_);fill:#FFFFFF;}
	.st4{clip-path:url(#SVGID_10_);fill:#FFFFFF;}
	.st5{clip-path:url(#SVGID_12_);fill:#FFFFFF;}
	.st6{clip-path:url(#SVGID_14_);fill:#FFFFFF;}
	.st7{clip-path:url(#SVGID_16_);fill:#FFFFFF;}
	.st8{clip-path:url(#SVGID_18_);fill:#FFFFFF;}
	.st9{clip-path:url(#SVGID_20_);fill:#FFFFFF;}
	.st10{clip-path:url(#SVGID_22_);fill:#FFFFFF;}
	.st11{clip-path:url(#SVGID_24_);fill:#FFFFFF;}
	.st12{clip-path:url(#SVGID_26_);fill:#FFFFFF;}
	.st13{clip-path:url(#SVGID_28_);fill:#FFFFFF;}
	.st14{clip-path:url(#SVGID_30_);fill:#FFFFFF;}
	.st15{clip-path:url(#SVGID_32_);fill:#FFFFFF;}
	.st16{clip-path:url(#SVGID_34_);fill:#FFFFFF;}
</style>
<g>
	<defs>
		<rect id="SVGID_1_" x="1" y="1" width="170.4" height="74.2"/>
	</defs>
	<clipPath id="SVGID_2_">
		<use xlink:href="#SVGID_1_"  style="overflow:visible;"/>
	</clipPath>
	<g class="st0">
		<defs>
			<rect id="SVGID_3_" x="1" y="1" width="170.4" height="74.2"/>
		</defs>
		<clipPath id="SVGID_4_">
			<use xlink:href="#SVGID_3_"  style="overflow:visible;"/>
		</clipPath>
		<path class="st1" d="M145,60l-9.2,11c-4.2,4.9-11.5,5.6-16.5,1.4l-0.6-0.5l18-21.5L118.3,29c0.1-0.2,0.2-0.3,0.5-0.5
			c4.9-4.2,12.3-3.7,16.5,1.2l36.2,41.6l-0.6,0.5c-4.9,4.2-12.3,3.7-16.5-1.2L145,60z M171.2,28.5l-10.2,12.2
			c-0.1,0.1-0.2,0.3-0.3,0.4c-2.2,2.2-5.8,2.2-8,0c-2.5-2.5-2.7-6.5-0.4-9.2l2.3-2.8c3.5-4.3,9.8-5.2,14.4-2.1L171.2,28.5z"/>
	</g>
	<g class="st0">
		<defs>
			<path id="SVGID_5_" d="M118.7,28.5c-0.2,0.2-0.4,0.4-0.5,0.5l18.5,21.4l-18,21.5l0.6,0.5c2.2,1.8,4.8,2.7,7.5,2.7h0
				c3.3,0,6.6-1.4,8.9-4.2l9.2-11l9.3,10.7c4.2,4.9,11.6,5.4,16.5,1.2l0.6-0.5l-36.2-41.6c-2.3-2.7-5.6-4-8.8-4
				C123.7,25.6,120.9,26.6,118.7,28.5 M154.5,29.1l-2.3,2.8c-2.2,2.7-2,6.7,0.4,9.2c2.2,2.2,5.8,2.2,8,0c0.1-0.1,0.2-0.2,0.3-0.4
				l10.2-12.2l-2.3-1.5c-1.8-1.2-3.9-1.8-6-1.8C159.7,25.1,156.6,26.5,154.5,29.1"/>
		</defs>
		<clipPath id="SVGID_6_">
			<use xlink:href="#SVGID_5_"  style="overflow:visible;"/>
		</clipPath>
		<rect x="117.3" y="24.2" class="st2" width="55.1" height="52"/>
	</g>
	<g class="st0">
		<defs>
			<rect id="SVGID_7_" x="1" y="1" width="170.4" height="74.2"/>
		</defs>
		<clipPath id="SVGID_8_">
			<use xlink:href="#SVGID_7_"  style="overflow:visible;"/>
		</clipPath>
		<path class="st3" d="M112,49.7h-10.7l-3.8-6.4l-4.6,9.8l-7.7-15l-4.9,9.5l-1.9-2.5l-3.1,4.7h-6V25.5h18.2
			C100.9,25.5,111.8,36.3,112,49.7 M111.8,53.3c-1.5,12.2-11.9,21.6-24.5,21.6H69.2V53.3h7h0.9l1.4-2.1l2.3,3.1l4.4-8.4L93,61.1
			l4.9-10.3l1.5,2.5H111.8z"/>
	</g>
	<g class="st0">
		<defs>
			<path id="SVGID_9_" d="M80.8,54.2l-2.3-3.1l-1.4,2.1h-0.9h-7v21.6h18.2c12.6,0,22.9-9.4,24.5-21.6H99.4l-1.5-2.5L93,61.1
				l-7.9-15.3L80.8,54.2z M69.2,25.5v24.2h6l3.1-4.7l1.9,2.5l4.9-9.5l7.7,15l4.6-9.8l3.8,6.4H112c-0.2-13.4-11.2-24.2-24.6-24.2
				H69.2z"/>
		</defs>
		<clipPath id="SVGID_10_">
			<use xlink:href="#SVGID_9_"  style="overflow:visible;"/>
		</clipPath>
		<rect x="68.2" y="24.5" class="st4" width="44.8" height="51.2"/>
	</g>
	<g class="st0">
		<defs>
			<rect id="SVGID_11_" x="1" y="1" width="170.4" height="74.2"/>
		</defs>
		<clipPath id="SVGID_12_">
			<use xlink:href="#SVGID_11_"  style="overflow:visible;"/>
		</clipPath>
		<path class="st5" d="M7.6,37.6L1,29.1c0.1-0.2,0.2-0.3,0.5-0.5c4.8-4.2,12-3.7,16.2,0.9l14.8,16.3l12.4-13.7
			c3.8-4.4,7.4-6.5,11.1-6.5h1.4l0,48.9h-0.8c-6.5,0-11.7-5.2-11.7-11.7V51.5l-12.4,13l-12.4-13v11.2c0,6.5-5.2,11.7-11.7,11.7H7.6
			V37.6z"/>
	</g>
	<g class="st0">
		<defs>
			<path id="SVGID_13_" d="M55.9,25.5c-3.6,0-7.3,2.2-11.1,6.5L32.5,45.7L17.7,29.5c-4.3-4.6-11.5-5-16.2-0.9
				c-0.2,0.2-0.4,0.4-0.4,0.5l6.6,8.4v36.9h0.8c6.5,0,11.7-5.2,11.7-11.7V51.5l12.4,13l12.4-13v11.2c0,6.5,5.2,11.7,11.7,11.7h0.8
				l0-48.9H55.9z"/>
		</defs>
		<clipPath id="SVGID_14_">
			<use xlink:href="#SVGID_13_"  style="overflow:visible;"/>
		</clipPath>
		<rect x="0" y="24.5" class="st6" width="58.3" height="50.9"/>
	</g>
	<g class="st0">
		<defs>
			<rect id="SVGID_15_" x="1" y="1" width="170.4" height="74.2"/>
		</defs>
		<clipPath id="SVGID_16_">
			<use xlink:href="#SVGID_15_"  style="overflow:visible;"/>
		</clipPath>
		<path class="st7" d="M18.8,2C18.9,2,19,2.1,19,2.2c0,0.1,0,0.2,0,0.3l-1.3,1.9c-0.1,0.1-0.1,0.1-0.2,0.2c-0.1,0-0.1,0-0.2-0.1
			C17,4.3,16.7,4.1,16.4,4c-0.3-0.1-0.6-0.2-1-0.2c-0.4,0-0.8,0.1-1.2,0.2c-0.4,0.2-0.7,0.4-0.9,0.7c-0.3,0.3-0.5,0.6-0.6,1
			c-0.1,0.4-0.2,0.8-0.2,1.2c0,0.4,0.1,0.8,0.2,1.2c0.1,0.4,0.4,0.7,0.6,1c0.3,0.3,0.6,0.5,0.9,0.7C14.6,10,15,10,15.4,10
			c0.3,0,0.7-0.1,1-0.2c0.3-0.1,0.6-0.3,0.9-0.5c0.1-0.1,0.2-0.1,0.2-0.1c0.1,0,0.1,0.1,0.2,0.1l1.3,1.9c0.1,0.1,0.1,0.2,0,0.3
			c0,0.1-0.1,0.1-0.2,0.2c-0.5,0.3-1,0.6-1.6,0.8c-0.6,0.2-1.2,0.3-1.8,0.3c-0.6,0-1.1-0.1-1.6-0.2c-0.5-0.1-1-0.3-1.4-0.6
			c-0.4-0.3-0.8-0.6-1.2-0.9c-0.4-0.4-0.7-0.8-0.9-1.2C10,9.6,9.8,9.1,9.7,8.6C9.5,8.1,9.5,7.5,9.5,7s0.1-1.1,0.2-1.6
			c0.1-0.5,0.3-1,0.6-1.4c0.3-0.4,0.6-0.9,0.9-1.2c0.4-0.4,0.8-0.7,1.2-0.9c0.4-0.3,0.9-0.5,1.4-0.6C14.4,1,14.9,1,15.5,1
			c0.6,0,1.2,0.1,1.8,0.3C17.8,1.4,18.3,1.7,18.8,2"/>
	</g>
	<g class="st0">
		<defs>
			<path id="SVGID_17_" d="M15.5,1c-0.6,0-1.1,0.1-1.6,0.2c-0.5,0.1-1,0.3-1.4,0.6c-0.4,0.3-0.8,0.6-1.2,0.9
				c-0.4,0.4-0.7,0.8-0.9,1.2C10,4.4,9.8,4.9,9.7,5.4C9.5,5.9,9.5,6.4,9.5,7c0,0.6,0.1,1.1,0.2,1.6c0.1,0.5,0.3,1,0.6,1.4
				c0.3,0.4,0.6,0.8,0.9,1.2c0.4,0.4,0.8,0.7,1.2,0.9c0.4,0.3,0.9,0.5,1.4,0.6c0.5,0.1,1,0.2,1.6,0.2c0.6,0,1.2-0.1,1.8-0.3
				s1.1-0.4,1.6-0.8c0.1-0.1,0.2-0.1,0.2-0.2c0-0.1,0-0.2,0-0.3l-1.3-1.9c-0.1-0.1-0.1-0.1-0.2-0.1c-0.1,0-0.1,0-0.2,0.1
				c-0.3,0.2-0.5,0.3-0.9,0.5c-0.3,0.1-0.6,0.2-1,0.2c-0.4,0-0.8-0.1-1.2-0.2c-0.4-0.2-0.7-0.4-0.9-0.7c-0.3-0.3-0.5-0.6-0.6-1
				c-0.1-0.4-0.2-0.8-0.2-1.2c0-0.4,0.1-0.8,0.2-1.2c0.1-0.4,0.4-0.7,0.6-1c0.3-0.3,0.6-0.5,0.9-0.7c0.4-0.2,0.8-0.2,1.2-0.2
				c0.3,0,0.7,0.1,1,0.2c0.3,0.1,0.6,0.3,0.8,0.4c0.1,0.1,0.2,0.1,0.2,0.1c0.1,0,0.1-0.1,0.2-0.2L19,2.5c0.1-0.1,0.1-0.2,0-0.3
				C19,2.1,18.9,2,18.8,2c-0.5-0.3-1-0.6-1.6-0.8C16.7,1.1,16.1,1,15.5,1z"/>
		</defs>
		<clipPath id="SVGID_18_">
			<use xlink:href="#SVGID_17_"  style="overflow:visible;"/>
		</clipPath>
		<rect x="8.5" y="0" class="st8" width="11.6" height="13.9"/>
	</g>
	<g class="st0">
		<defs>
			<rect id="SVGID_19_" x="1" y="1" width="170.4" height="74.2"/>
		</defs>
		<clipPath id="SVGID_20_">
			<use xlink:href="#SVGID_19_"  style="overflow:visible;"/>
		</clipPath>
		<path class="st9" d="M50.8,5.4l1.9-4.1c0-0.1,0.1-0.1,0.1-0.1c0,0,0,0,0.1-0.1c0,0,0,0,0.1,0c0,0,0.1,0,0.1,0h3c0,0,0.1,0,0.1,0
			s0,0.1,0,0.1c0,0.1,0,0.1-0.1,0.2L52.4,8v4.4c0,0.2-0.1,0.4-0.4,0.4h-2.4c-0.1,0-0.2,0-0.2-0.1c-0.1-0.1-0.1-0.2-0.1-0.3V8
			l-3.7-6.6c-0.1-0.1-0.1-0.1-0.1-0.2c0,0,0-0.1,0-0.1c0,0,0,0,0.1,0h3c0,0,0.1,0,0.1,0c0,0,0,0,0.1,0c0,0,0,0,0.1,0.1
			c0,0,0,0.1,0.1,0.1L50.8,5.4z"/>
	</g>
	<g class="st0">
		<defs>
			<path id="SVGID_21_" d="M53,1.1C53,1.2,53,1.2,53,1.1c-0.1,0-0.1,0-0.1,0c0,0,0,0-0.1,0.1c0,0,0,0.1-0.1,0.1l-1.9,4.1l-1.9-4.1
				c0-0.1-0.1-0.1-0.1-0.1c0,0,0,0-0.1-0.1c0,0,0,0-0.1,0c0,0,0,0-0.1,0h-3c0,0-0.1,0-0.1,0c0,0,0,0.1,0,0.1c0,0.1,0,0.1,0.1,0.2
				L49.3,8v4.4c0,0.1,0,0.2,0.1,0.3c0.1,0.1,0.1,0.1,0.2,0.1H52c0.2,0,0.4-0.1,0.4-0.4V8l3.7-6.6c0.1-0.1,0.1-0.1,0.1-0.2
				c0,0,0-0.1,0-0.1c0,0-0.1,0-0.1,0H53z"/>
		</defs>
		<clipPath id="SVGID_22_">
			<use xlink:href="#SVGID_21_"  style="overflow:visible;"/>
		</clipPath>
		<rect x="44.5" y="0.2" class="st10" width="12.6" height="13.6"/>
	</g>
	<g class="st0">
		<defs>
			<rect id="SVGID_23_" x="1" y="1" width="170.4" height="74.2"/>
		</defs>
		<clipPath id="SVGID_24_">
			<use xlink:href="#SVGID_23_"  style="overflow:visible;"/>
		</clipPath>
		<path class="st11" d="M83.4,1.5c0-0.1,0-0.2,0.1-0.3s0.1-0.1,0.3-0.1h5.2c0.5,0,0.9,0.1,1.3,0.3c0.4,0.2,0.8,0.4,1.1,0.7
			c0.3,0.3,0.5,0.7,0.7,1.1c0.2,0.4,0.3,0.9,0.3,1.3c0,0.4-0.1,0.8-0.2,1.1C92,6,91.8,6.3,91.6,6.5c0.4,0.3,0.7,0.8,0.9,1.2
			c0.2,0.5,0.3,1,0.3,1.5c0,0.5-0.1,0.9-0.3,1.4c-0.2,0.4-0.4,0.8-0.7,1.1c-0.3,0.3-0.7,0.6-1.1,0.8c-0.4,0.2-0.9,0.3-1.3,0.3h-5.7
			c-0.1,0-0.2,0-0.3-0.1c-0.1-0.1-0.1-0.1-0.1-0.3V1.5z M89.7,9.1c0-0.2,0-0.3-0.1-0.5c-0.1-0.2-0.1-0.3-0.3-0.4
			C89.3,8.1,89.1,8,89,8c-0.1-0.1-0.3-0.1-0.5-0.1h-2.1v2.6h2.1c0.2,0,0.3,0,0.5-0.1c0.1-0.1,0.3-0.2,0.4-0.3
			c0.1-0.1,0.2-0.3,0.3-0.4C89.7,9.5,89.7,9.3,89.7,9.1 M89.3,4.6c0-0.2,0-0.3-0.1-0.4C89.1,4,89.1,3.9,89,3.8
			c-0.1-0.1-0.2-0.2-0.4-0.2c-0.1-0.1-0.3-0.1-0.5-0.1h-1.7v2.3h1.7c0.2,0,0.3,0,0.5-0.1c0.1-0.1,0.3-0.1,0.4-0.2
			c0.1-0.1,0.2-0.2,0.2-0.4C89.3,4.9,89.3,4.8,89.3,4.6"/>
	</g>
	<g class="st0">
		<defs>
			<path id="SVGID_25_" d="M86.4,7.8h2.1c0.2,0,0.3,0,0.5,0.1c0.1,0.1,0.3,0.2,0.4,0.3c0.1,0.1,0.2,0.3,0.3,0.4
				c0.1,0.2,0.1,0.3,0.1,0.5c0,0.2,0,0.3-0.1,0.5c-0.1,0.2-0.1,0.3-0.3,0.4c-0.1,0.1-0.2,0.2-0.4,0.3c-0.1,0.1-0.3,0.1-0.5,0.1h-2.1
				V7.8z M86.4,3.5h1.7c0.2,0,0.3,0,0.5,0.1c0.1,0.1,0.3,0.1,0.4,0.2c0.1,0.1,0.2,0.2,0.2,0.4c0.1,0.1,0.1,0.3,0.1,0.4
				c0,0.2,0,0.3-0.1,0.5c-0.1,0.1-0.1,0.3-0.2,0.4c-0.1,0.1-0.2,0.2-0.4,0.2c-0.1,0.1-0.3,0.1-0.5,0.1h-1.7V3.5z M83.7,1.1
				c-0.1,0-0.2,0-0.3,0.1c-0.1,0.1-0.1,0.2-0.1,0.3v10.9c0,0.1,0,0.2,0.1,0.3c0.1,0.1,0.1,0.1,0.3,0.1h5.7c0.5,0,0.9-0.1,1.3-0.3
				c0.4-0.2,0.8-0.4,1.1-0.8c0.3-0.3,0.6-0.7,0.7-1.1c0.2-0.4,0.3-0.9,0.3-1.4c0-0.5-0.1-1-0.3-1.5c-0.2-0.5-0.5-0.9-0.9-1.2
				C91.8,6.3,92,6,92.1,5.6c0.1-0.3,0.2-0.7,0.2-1.1c0-0.5-0.1-0.9-0.3-1.3c-0.2-0.4-0.4-0.8-0.7-1.1c-0.3-0.3-0.7-0.5-1.1-0.7
				c-0.4-0.2-0.8-0.3-1.3-0.3H83.7z"/>
		</defs>
		<clipPath id="SVGID_26_">
			<use xlink:href="#SVGID_25_"  style="overflow:visible;"/>
		</clipPath>
		<rect x="82.4" y="0.2" class="st12" width="11.4" height="13.6"/>
	</g>
	<g class="st0">
		<defs>
			<rect id="SVGID_27_" x="1" y="1" width="170.4" height="74.2"/>
		</defs>
		<clipPath id="SVGID_28_">
			<use xlink:href="#SVGID_27_"  style="overflow:visible;"/>
		</clipPath>
		<path class="st13" d="M120.2,1.5c0-0.1,0-0.2,0.1-0.3c0.1-0.1,0.1-0.1,0.3-0.1h7.8c0.1,0,0.2,0,0.3,0.1c0.1,0.1,0.1,0.2,0.1,0.3
			v1.9c0,0.1,0,0.2-0.1,0.3c-0.1,0.1-0.2,0.1-0.3,0.1h-5.1v1.9h3.9c0.1,0,0.2,0,0.2,0.1c0.1,0,0.1,0.1,0.1,0.2v1.7
			c0,0.1,0,0.1-0.1,0.2c-0.1,0.1-0.1,0.1-0.3,0.1h-3.9v2h5.3c0.2,0,0.4,0.1,0.4,0.4v2c0,0.1,0,0.1-0.1,0.1c0,0.1-0.1,0.2-0.3,0.2
			h-7.9c-0.1,0-0.2,0-0.3-0.1c-0.1-0.1-0.1-0.1-0.1-0.3V1.5z"/>
	</g>
	<g class="st0">
		<defs>
			<path id="SVGID_29_" d="M120.6,1.1c-0.1,0-0.2,0-0.3,0.1c-0.1,0.1-0.1,0.2-0.1,0.3v10.9c0,0.1,0,0.2,0.1,0.3
				c0.1,0.1,0.1,0.1,0.3,0.1h7.9c0.2,0,0.3-0.1,0.3-0.2c0,0,0.1-0.1,0.1-0.1v-2c0-0.2-0.1-0.4-0.4-0.4h-5.3v-2h3.9
				c0.1,0,0.2,0,0.3-0.1c0.1-0.1,0.1-0.1,0.1-0.2V6.1c0-0.1,0-0.2-0.1-0.2c-0.1,0-0.1-0.1-0.2-0.1h-3.9V3.8h5.1c0.1,0,0.2,0,0.3-0.1
				c0.1-0.1,0.1-0.2,0.1-0.3V1.5c0-0.1,0-0.2-0.1-0.3c-0.1-0.1-0.2-0.1-0.3-0.1H120.6z"/>
		</defs>
		<clipPath id="SVGID_30_">
			<use xlink:href="#SVGID_29_"  style="overflow:visible;"/>
		</clipPath>
		<rect x="119.2" y="0.2" class="st14" width="10.6" height="13.6"/>
	</g>
	<g class="st0">
		<defs>
			<rect id="SVGID_31_" x="1" y="1" width="170.4" height="74.2"/>
		</defs>
		<clipPath id="SVGID_32_">
			<use xlink:href="#SVGID_31_"  style="overflow:visible;"/>
		</clipPath>
		<path class="st15" d="M156.5,1.5c0-0.1,0-0.2,0.1-0.3c0.1-0.1,0.1-0.1,0.3-0.1h5.1c0.5,0,1,0.1,1.5,0.3c0.5,0.2,0.9,0.5,1.2,0.8
			c0.4,0.3,0.6,0.7,0.8,1.2c0.2,0.5,0.3,1,0.3,1.5c0,0.4,0,0.7-0.1,1c-0.1,0.3-0.2,0.6-0.4,0.9s-0.4,0.5-0.6,0.8
			c-0.2,0.2-0.5,0.4-0.8,0.6l2,3.8c0,0.1,0.1,0.2,0.1,0.3c0.1,0.1,0.1,0.2,0.1,0.3c0,0.1,0,0.1-0.1,0.2c-0.1,0-0.1,0.1-0.2,0.1h-2.7
			c-0.1,0-0.2,0-0.2-0.1c-0.1-0.1-0.1-0.1-0.1-0.2l-1.9-3.6h-1.3v3.5c0,0.2-0.1,0.3-0.4,0.3h-2.3c-0.1,0-0.2,0-0.3-0.1
			c-0.1-0.1-0.1-0.1-0.1-0.3V1.5z M162.6,5c0-0.2,0-0.3-0.1-0.5c-0.1-0.2-0.1-0.3-0.2-0.4c-0.1-0.1-0.2-0.2-0.4-0.3
			c-0.1-0.1-0.3-0.1-0.5-0.2c-0.1,0-0.3,0-0.4,0c-0.1,0-0.3,0-0.4,0h-1.1v2.9h1.4c0.1,0,0.2,0,0.3,0c0.1,0,0.2,0,0.2,0
			c0.2,0,0.3-0.1,0.5-0.2c0.1-0.1,0.3-0.2,0.4-0.3c0.1-0.1,0.2-0.3,0.2-0.4C162.6,5.3,162.6,5.2,162.6,5"/>
	</g>
	<g class="st0">
		<defs>
			<path id="SVGID_33_" d="M159.5,3.6h1.1c0.2,0,0.3,0,0.4,0c0.1,0,0.3,0,0.4,0c0.2,0,0.3,0.1,0.5,0.2c0.1,0.1,0.3,0.2,0.4,0.3
				c0.1,0.1,0.2,0.3,0.2,0.4c0.1,0.2,0.1,0.3,0.1,0.5c0,0.2,0,0.3-0.1,0.5c-0.1,0.2-0.1,0.3-0.2,0.4c-0.1,0.1-0.2,0.2-0.4,0.3
				c-0.1,0.1-0.3,0.1-0.5,0.2c-0.1,0-0.2,0-0.2,0c-0.1,0-0.2,0-0.3,0h-1.4V3.6z M156.8,1.2c-0.1,0-0.2,0-0.3,0.1
				c-0.1,0.1-0.1,0.2-0.1,0.3v10.9c0,0.1,0,0.2,0.1,0.3c0.1,0.1,0.1,0.1,0.3,0.1h2.3c0.2,0,0.4-0.1,0.4-0.3V8.9h1.3l1.9,3.6
				c0,0.1,0.1,0.2,0.1,0.2c0.1,0.1,0.2,0.1,0.2,0.1h2.7c0.1,0,0.2,0,0.2-0.1c0.1,0,0.1-0.1,0.1-0.2c0-0.1,0-0.2-0.1-0.3
				c-0.1-0.1-0.1-0.2-0.1-0.3l-2-3.8c0.3-0.2,0.5-0.4,0.8-0.6c0.2-0.2,0.4-0.5,0.6-0.8c0.2-0.3,0.3-0.6,0.4-0.9
				c0.1-0.3,0.1-0.7,0.1-1c0-0.5-0.1-1-0.3-1.5c-0.2-0.5-0.5-0.9-0.8-1.2c-0.4-0.3-0.8-0.6-1.2-0.8c-0.5-0.2-1-0.3-1.5-0.3H156.8z"
				/>
		</defs>
		<clipPath id="SVGID_34_">
			<use xlink:href="#SVGID_33_"  style="overflow:visible;"/>
		</clipPath>
		<rect x="155.5" y="0.2" class="st16" width="11.5" height="13.6"/>
	</g>
</g>
</svg>
