<?xml version="1.0" encoding="utf-8"?>
<!-- Generator: Adobe Illustrator 19.0.0, SVG Export Plug-In . SVG Version: 6.00 Build 0)  -->
<svg version="1.1" id="Layer_1" xmlns="http://www.w3.org/2000/svg" xmlns:xlink="http://www.w3.org/1999/xlink" x="0px" y="0px"
	 viewBox="0 0 175.9 94" style="enable-background:new 0 0 175.9 94;" xml:space="preserve">
<style type="text/css">
	.st0{fill:#48499E;}
	.st1{fill:#FFFFFF;}
</style>
<g id="XMLID_1_">
	
		<rect id="XMLID_46_" x="4.5" y="16.7" transform="matrix(0.9781 -0.2079 0.2079 0.9781 -7.848 19.3149)" class="st0" width="167" height="60.6"/>
	<path id="XMLID_45_" class="st1" d="M113.6,62.2l0.9-0.2c0,0-0.7-3.3-0.8-3.7c0.3,0.3,3.7,3.1,3.7,3.1l0.9-0.2l-1.1-5l-0.9,0.2
		c0,0,0.7,3.3,0.8,3.7c-0.3-0.3-3.7-3.1-3.7-3.1l-0.9,0.2L113.6,62.2z"/>
	<path id="XMLID_44_" class="st1" d="M119.5,60.9l4-0.9l-0.2-0.8c0,0-3,0.6-3.2,0.7l-0.3-1.4l3-0.6l-0.2-0.8l-3,0.6
		c0-0.1-0.2-1.1-0.3-1.2c0.2,0,3.1-0.7,3.1-0.7l-0.2-0.8l-4,0.8L119.5,60.9z"/>
	<path id="XMLID_43_" class="st1" d="M123.4,55.6c0,0,1.6-0.3,1.8-0.4c0,0.2,0.9,4.2,0.9,4.2l0.9-0.2c0,0-0.9-4.1-0.9-4.2
		c0.2,0,1.8-0.4,1.8-0.4l-0.2-0.8l-4.5,0.9L123.4,55.6z"/>
	<path id="XMLID_42_" class="st1" d="M131.1,58.4l0.9-0.2c0,0,0.4-3.7,0.4-4.1c0.2,0.4,2.1,3.6,2.1,3.6l0.9-0.2l0.6-5.4l-0.9,0.2
		c0,0-0.3,3.6-0.4,4c-0.2-0.4-2-3.5-2-3.5l-1,0.2c0,0-0.4,3.6-0.4,4c-0.2-0.4-2-3.5-2-3.5l-0.9,0.2L131.1,58.4z"/>
	<path id="XMLID_39_" class="st1" d="M139,51.4c-0.9,0.2-1.5,0.6-1.9,1.2c-0.4,0.6-0.5,1.3-0.3,2c0.2,0.8,0.6,1.4,1.1,1.7
		c0.6,0.4,1.3,0.5,2.2,0.3c2-0.4,2.4-2,2.2-3.2C142,52.2,141,51,139,51.4 M138.4,55.6c-0.4-0.3-0.6-0.7-0.8-1.2l0,0
		c-0.1-0.6-0.1-1,0.2-1.4c0.3-0.4,0.7-0.7,1.3-0.8l0,0c1.1-0.2,2,0.3,2.2,1.4c0.2,1.1-0.3,2-1.5,2.2C139.3,56,138.8,55.9,138.4,55.6
		"/>
	<path id="XMLID_36_" class="st1" d="M143.7,55.8l0.9-0.2c0,0-0.4-1.9-0.4-2.1l1.8-0.4c0.5-0.1,0.8,0,1.1,0.9l0,0.2
		c0.1,0.5,0.2,0.7,0.3,0.8l0,0l1-0.2l-0.2-0.1c-0.2-0.1-0.2-0.4-0.5-1.2c-0.1-0.5-0.4-0.9-0.8-0.9c0.4-0.3,0.6-0.8,0.4-1.3
		c-0.1-0.6-0.7-1.3-1.7-1.1l-3,0.6L143.7,55.8z M143.7,51.3c0.2,0,1.9-0.4,1.9-0.4c0.5-0.1,0.8,0.1,0.9,0.5c0.1,0.3,0,0.7-0.6,0.8
		c0,0-1.7,0.4-1.9,0.4C144,52.6,143.7,51.5,143.7,51.3"/>
	<path id="XMLID_35_" class="st1" d="M149.4,54.6l0.9-0.2c0,0-0.3-1.6-0.3-1.6c0-0.1,0.5-0.7,0.6-0.9c0.1,0.1,2.4,1.9,2.4,1.9
		l1.2-0.3c0,0-2.9-2.3-3.1-2.4c0.1-0.1,1.9-2.6,1.9-2.6l-1.3,0.3c0,0-1.8,2.6-2,2.9l-0.5-2.3l-0.9,0.2L149.4,54.6z"/>
	<path id="XMLID_34_" class="st1" d="M154,49.8c0.2,1.1,1.4,1.1,1.8,1l1.1,0c0.6,0,0.9,0.1,0.9,0.5c0,0.2,0,0.3-0.1,0.5
		c-0.2,0.2-0.5,0.4-1,0.5c-0.5,0.1-1.5,0.2-1.7-0.7l0-0.1l-0.9,0.2l0,0.1c0.1,0.5,0.3,0.9,0.7,1.1c0.6,0.4,1.4,0.3,1.9,0.2
		c0.4-0.1,1.2-0.3,1.6-0.9c0.2-0.3,0.3-0.7,0.2-1.2c-0.2-1.1-1.4-1-1.8-1c0,0-1.2,0-1.2,0c-0.7,0-0.8-0.2-0.8-0.4
		c0-0.2,0-0.3,0.1-0.5c0.1-0.2,0.4-0.4,0.8-0.5c1.1-0.2,1.4,0.2,1.5,0.5l0,0.1l0.9-0.2l0-0.1c-0.3-1-1.2-1.4-2.4-1.2
		C154.5,48.1,153.8,48.9,154,49.8"/>
	<path id="XMLID_31_" class="st1" d="M67.4,45c-1-0.7-2.5-0.9-4-0.6c-1.7,0.4-2.8,1.1-3.7,2.7l-0.2-0.9c-0.5-0.4-1.1-0.6-1.7-0.5
		c-0.6,0.1-1.1,0.5-1.3,1.1L61,68.1l3.1-0.7l-1.7-8c1.4,1.1,2.8,1.3,4.4,0.9c1.5-0.3,2.8-1.1,3.4-2.2c1.2-1.9,0.8-4.6,0.3-7
		C70,48.8,69.3,46.2,67.4,45 M65.4,57.8c-2.8,0.6-3.7-1.8-4.3-4.6c-0.6-2.8-0.7-5.3,2.1-5.9c2.8-0.6,3.7,1.7,4.3,4.5
		C68,54.7,68.1,57.2,65.4,57.8"/>
	<path id="XMLID_28_" class="st1" d="M83.5,56.7l-0.3-1.4c-0.9,1.4-1.8,2.1-3.7,2.5c-1.9,0.4-3.3,0.2-4.4-0.6
		c-1-0.7-1.6-1.8-1.9-3.1c-0.6-2.6,0.8-4.9,4.3-5.7l4.1-0.9l-0.2-1.1c-0.4-2-1.6-2.7-4-2.2c-1.7,0.4-2.4,0.9-3,2.2l-2.4-1.5
		c1.1-2,2.5-2.9,5-3.4c4.2-0.9,6.7,0.5,7.5,4.1l2.2,10.5L83.5,56.7z M81.9,49.8l-3.6,0.8c-1.8,0.4-2.6,1.4-2.3,2.8
		c0.3,1.4,1.4,2,3.3,1.6c1.2-0.3,2-0.5,2.7-1.5c0.4-0.6,0.4-1.4,0.2-2.5L81.9,49.8z"/>
	<path id="XMLID_27_" class="st1" d="M93.7,51.7c-1.2,0.3-1.8-0.3-2.1-1.5l-3.7-17.6c-0.5-0.4-1.1-0.6-1.7-0.5
		c-0.6,0.1-1.1,0.6-1.4,1.1l3.8,17.7c0.5,2.3,2.2,4.1,5.1,3.4l1.9-0.4l-0.6-2.7L93.7,51.7z"/>
	<path id="XMLID_24_" class="st1" d="M107.4,49.9c-0.8,1.3-2.1,2.4-4.2,2.8c-2.1,0.4-3.7,0-5-0.9c-1.8-1.2-2.6-3.1-3.1-5.8
		c-0.6-2.6-0.6-4.7,0.5-6.6c0.8-1.3,2.1-2.4,4.2-2.8c2.1-0.4,3.8,0,5,0.9c1.8,1.2,2.6,3.1,3.1,5.8C108.4,45.9,108.5,48,107.4,49.9
		 M102.8,39.8c-0.7-0.5-1.6-0.6-2.5-0.4c-0.9,0.2-1.6,0.7-2,1.4c-0.7,1.2-0.5,2.8-0.1,4.5c0.4,1.7,0.8,3.3,2,4.1
		c0.7,0.5,1.5,0.6,2.4,0.5c0.9-0.2,1.6-0.7,2.1-1.4c0.7-1.2,0.5-2.8,0.1-4.5C104.4,42.2,104,40.6,102.8,39.8"/>
	<path id="XMLID_23_" class="st1" d="M131.5,43.7c-1.2,0.3-1.8-0.3-2.1-1.5l-3.7-17.6c-0.5-0.4-1.1-0.6-1.7-0.5
		c-0.6,0.1-1.1,0.6-1.4,1.1l3.8,17.7c0.5,2.3,2.2,4.1,5.1,3.4l1.9-0.4l-0.6-2.7L131.5,43.7z"/>
	<path id="XMLID_20_" class="st1" d="M120.8,48.8l-0.3-1.4c-0.9,1.4-1.8,2.1-3.7,2.5c-1.9,0.4-3.3,0.2-4.4-0.6
		c-1-0.7-1.6-1.8-1.9-3.1c-0.6-2.6,0.8-4.9,4.3-5.7l4.1-0.9l-0.2-1.1c-0.4-2-1.6-2.7-4-2.2c-1.7,0.4-2.4,0.9-3,2.2l-2.4-1.5
		c1.1-2,2.5-2.9,5-3.4c4.2-0.9,6.7,0.5,7.5,4.1l2.2,10.5L120.8,48.8z M119.3,41.8l-3.6,0.8c-1.8,0.4-2.6,1.4-2.3,2.8
		c0.3,1.4,1.4,2,3.3,1.6c1.2-0.3,2-0.5,2.7-1.5c0.4-0.6,0.4-1.4,0.2-2.5L119.3,41.8z"/>
	<path id="XMLID_19_" class="st1" d="M139.3,31.2l-0.5-2.4l-3,0.6l-1-4.8c-0.5-0.4-1.1-0.6-1.7-0.5c-0.6,0.1-1.1,0.6-1.4,1.1l1,4.8
		l-1.8,0.4l0.5,2.4l1.8-0.4l1.8,8.7c0.5,2.3,2.3,4.1,5.1,3.5l1.8-0.4l-0.6-2.7l-1.3,0.3c-1.1,0.2-1.8-0.3-2.1-1.5l-1.8-8.5
		L139.3,31.2z"/>
	<path id="XMLID_16_" class="st1" d="M154.5,39.9c-0.8,1.3-2.1,2.4-4.2,2.8c-2.1,0.4-3.7,0-5-0.9c-1.8-1.2-2.6-3.2-3.1-5.8
		c-0.6-2.6-0.6-4.7,0.5-6.6c0.8-1.3,2.1-2.4,4.2-2.8c2.1-0.4,3.8,0,5,0.9c1.8,1.2,2.6,3.1,3.1,5.8C155.6,35.9,155.6,38,154.5,39.9
		 M149.9,29.8c-0.7-0.5-1.6-0.6-2.5-0.4c-0.9,0.2-1.6,0.7-2,1.4c-0.7,1.2-0.5,2.8-0.1,4.5c0.4,1.7,0.8,3.3,2,4.1
		c0.7,0.5,1.5,0.6,2.4,0.5c0.9-0.2,1.6-0.7,2.1-1.4c0.7-1.2,0.5-2.8,0.1-4.5C151.6,32.2,151.1,30.6,149.9,29.8"/>
	<path id="XMLID_11_" class="st1" d="M161.3,50c-0.8,0.2-1.6-0.4-1.8-1.2c-0.2-0.8,0.3-1.7,1.2-1.8c0.8-0.2,1.6,0.4,1.8,1.2
		S162.1,49.8,161.3,50 M160.7,47.1c-0.7,0.1-1.1,0.8-1,1.6c0.2,0.7,0.8,1.2,1.5,1c0.7-0.1,1.1-0.8,1-1.6
		C162.1,47.5,161.4,47,160.7,47.1 M161.5,49.2l-0.5-0.6l-0.2,0.1l0.1,0.7l-0.2,0l-0.4-1.7l0.6-0.1c0.3-0.1,0.6,0.1,0.6,0.4
		c0.1,0.2-0.1,0.4-0.3,0.5l0.5,0.6L161.5,49.2z M160.9,47.8l-0.3,0.1l0.1,0.6l0.3-0.1c0.2,0,0.3-0.2,0.2-0.4
		C161.2,47.9,161.1,47.8,160.9,47.8"/>
	<g id="XMLID_2_">
		<path id="XMLID_3_" class="st1" d="M49,56.3c0-0.7,0.5-1.4,1.2-1.6l-2.1-9.9c-0.5-2.6-3-4.2-5.6-3.7l-20.2,4.3
			c-2.5,0.5-4.1,3-3.6,5.6l4.3,20.4c0.5,2.6,3,4.2,5.6,3.7l20.2-4.3c2.5-0.5,4.1-3,3.6-5.6L51,58.7c-0.2,0.2-0.4,0.3-0.6,0.3
			c-0.7,0.2-1.3-0.3-1.3-1.1L49,56.3 M25.6,64l0.1,1.7c0,0.7-0.5,1.5-1.2,1.6c-0.7,0.1-1.3-0.3-1.3-1.1l-0.1-1.7
			c0-0.7,0.5-1.5,1.2-1.6C25,62.7,25.6,63.2,25.6,64 M30,63l0.2,5.9c0,0.7-0.5,1.5-1.2,1.6c-0.7,0.2-1.3-0.3-1.3-1.1l-0.2-5.9
			c0-0.7,0.5-1.5,1.2-1.6C29.4,61.8,29.9,62.3,30,63 M34.2,59.4l0.4,11.4c0,0.7-0.5,1.5-1.2,1.6c-0.7,0.2-1.3-0.3-1.3-1.1l-0.4-11.4
			c0-0.7,0.5-1.5,1.2-1.6C33.6,58.2,34.2,58.7,34.2,59.4 M38.3,53.1l0.6,15.3c0,0.7-0.5,1.5-1.2,1.6c-0.7,0.1-1.3-0.3-1.3-1.1
			l-0.6-15.3c0-0.7,0.5-1.5,1.2-1.6C37.7,51.9,38.3,52.3,38.3,53.1 M42.6,50.7l0.4,11.4c0,0.7-0.5,1.5-1.2,1.6
			c-0.7,0.1-1.3-0.3-1.3-1.1l-0.4-11.4c0-0.7,0.5-1.5,1.2-1.6C42,49.5,42.6,50,42.6,50.7 M47.1,52.5l0.2,5.9c0,0.7-0.5,1.5-1.2,1.6
			c-0.7,0.1-1.3-0.3-1.3-1.1l-0.2-5.9c0-0.7,0.5-1.5,1.2-1.6C46.4,51.3,47,51.8,47.1,52.5"/>
	</g>
</g>
</svg>
