<?xml version="1.0" encoding="utf-8"?>
<!-- Generator: Adobe Illustrator 19.0.0, SVG Export Plug-In . SVG Version: 6.00 Build 0)  -->
<svg version="1.1" id="Layer_1" xmlns="http://www.w3.org/2000/svg" xmlns:xlink="http://www.w3.org/1999/xlink" x="0px" y="0px"
	 viewBox="0 0 272.8 40.3" style="enable-background:new 0 0 272.8 40.3;" xml:space="preserve">
<style type="text/css">
	.st0{fill-rule:evenodd;clip-rule:evenodd;fill:#48499E;}
	.st1{fill:#48499E;}
</style>
<g>
	<g id="Layer_1-2_1_">
		<path class="st0" d="M66.5,12.4c-2.8,0-5.5,1-7.6,2.7v-2.5h-6.9v27h7.2V22.5c1.6-2,4-3.3,6.6-3.4c1-0.1,2,0.1,2.9,0.4v-6.9
			C67.9,12.5,67.2,12.4,66.5,12.4"/>
		<path class="st0" d="M3.5,31.5c2.1,1.7,4.6,2.7,7.3,2.7c1.9,0,3.4-1,3.4-2.3c0.1-4.1-13-2.6-13-11.3c0-5.2,5-8.4,10.3-8.4
			c3.3,0,6.4,0.9,9.2,2.7l-3.4,5.3c-1.5-1.1-3.3-1.8-5.2-1.8c-2,0-3.7,0.8-3.7,2.2c0,3.5,13,2.1,13,11.5c0,5.1-5.1,8.3-10.7,8.3
			C6.9,40.3,3.1,39,0,36.6L3.5,31.5z"/>
		<path class="st0" d="M48.8,26c0-7.5-5.3-13.8-12.7-13.8c-8,0-13.1,6.6-13.1,14.1c-0.3,7.4,5.4,13.7,12.9,14.1c0.4,0,0.8,0,1.2,0
			c4.2,0,8.2-1.7,11-4.8L44,31.3c-1.7,1.9-4.2,3.1-6.8,3.1c-3.8,0.2-7-2.7-7.3-6.4h18.8C48.8,27.4,48.8,26.7,48.8,26z M30.3,22.7
			c0.5-2.8,3-4.8,5.8-4.7c2.7,0,5,2,5.3,4.7H30.3z"/>
		<polygon class="st0" points="85.8,29.2 93.2,12.7 100.7,12.7 88.3,39.7 83.3,39.7 70.9,12.7 78.4,12.7 		"/>
		<path class="st0" d="M106.7,0c2.6,0,4.6,2.1,4.6,4.7c0,2.6-2.1,4.6-4.7,4.6c-2.5,0-4.6-2.1-4.6-4.6C102,2.1,104.1,0,106.7,0
			C106.7,0,106.7,0,106.7,0"/>
		<rect x="103.1" y="12.7" class="st1" width="7.2" height="27"/>
		<path class="st0" d="M140.2,34.2c-2.8,4-7.4,6.3-12.2,6.1c-7.8,0-14.1-6.3-14.1-14.1s6.3-14.1,14.1-14.1c0,0,0,0,0,0
			c4.4,0,8.6,2,11.3,5.5l-5.1,4.3c-1.5-2-3.8-3.2-6.2-3.2c-4,0-7.3,3.3-7.3,7.3c0,0,0,0.1,0,0.1c-0.1,3.9,3,7.2,6.9,7.3
			c0.2,0,0.3,0,0.5,0c2.6,0,5-1.4,6.5-3.6L140.2,34.2z"/>
		<path class="st0" d="M166.4,35.5c-2.8,3.1-6.8,4.9-11,4.8c-7.5,0.3-13.8-5.4-14.1-12.9c0-0.4,0-0.8,0-1.2
			c0-7.5,5.1-14.1,13.1-14.1c7.4,0,12.7,6.3,12.7,13.8c0,0.7-0.1,1.4-0.2,2.1h-18.7c0.3,3.7,3.6,6.6,7.3,6.4c2.6-0.1,5-1.2,6.8-3.1
			L166.4,35.5z M159.7,22.7c-0.4-2.7-2.6-4.7-5.3-4.7c-2.8,0-5.3,2-5.8,4.7H159.7z"/>
		<path class="st0" d="M170,39.7v-27h6.9v2.2c2.1-1.8,4.8-2.7,7.6-2.7c3.6,0,7,1.6,9.3,4.3c1.8,2.1,2.8,4.9,2.8,9.5v13.8h-7.2V25.4
			c0.2-1.8-0.4-3.7-1.6-5.1c-1.1-1-2.6-1.6-4.1-1.5c-2.6,0.1-5,1.3-6.5,3.3v17.6H170z"/>
		<path class="st0" d="M215.2,12.1c-8.7,0-15.8,7.1-15.8,15.8c0,4.4,1.8,8.5,4.9,11.5c1.1,1.1,2.8,1.2,4.1,0.2c4-3,9.5-3,13.5,0
			c1.2,0.9,3,0.8,4.1-0.2c6.3-6,6.6-16,0.6-22.4C223.6,14,219.5,12.2,215.2,12.1 M215.2,35.8c-4.2,0.1-7.7-3.2-7.9-7.5
			c0-0.1,0-0.3,0-0.4c-0.2-4.3,3.1-8,7.5-8.3s8,3.1,8.3,7.5c0,0.3,0,0.5,0,0.8c0.1,4.2-3.2,7.7-7.5,7.9
			C215.5,35.8,215.4,35.8,215.2,35.8"/>
		<polygon class="st0" points="245.2,39.7 239.8,39.7 229.1,12.7 236.3,12.7 242.2,28.2 247.9,12.7 254,12.7 259.7,28.2 265.6,12.7 
			272.8,12.7 262.1,39.7 256.7,39.7 251,24.4 		"/>
		<polygon class="st1" points="268.9,36.3 268.9,36.9 268,36.9 268,39.7 267.3,39.7 267.3,36.9 266.4,36.9 266.4,36.3 		"/>
		<polygon class="st1" points="271.1,38.4 272.4,36.3 272.8,36.3 272.8,39.7 272.2,39.7 272.2,37.8 271.3,39.2 270.9,39.2 
			270.1,37.8 270.1,39.7 269.4,39.7 269.4,36.3 269.9,36.3 		"/>
	</g>
</g>
</svg>
