<?xml version="1.0" encoding="utf-8"?>
<!-- Generator: Adobe Illustrator 19.0.0, SVG Export Plug-In . SVG Version: 6.00 Build 0)  -->
<svg version="1.1" id="Layer_1" xmlns="http://www.w3.org/2000/svg" xmlns:xlink="http://www.w3.org/1999/xlink" x="0px" y="0px"
	 viewBox="0 0 205.5 53.5" style="enable-background:new 0 0 205.5 53.5;" xml:space="preserve">
<style type="text/css">
	.st0{fill:#48499E;}
</style>
<g>
	<path class="st0" d="M31.9,32.3c0,1.2-0.2,2.3-0.8,3.3c-0.5,1-1.2,1.9-2.1,2.6c-0.9,0.7-2,1.2-3.3,1.6c-1.2,0.4-2.6,0.6-4.1,0.6
		c-1.8,0-3.4-0.2-4.8-0.7s-2.8-1.3-4.3-2.4l2.3-3.8c1.2,0.9,2.2,1.6,3,2.1c0.9,0.5,1.9,0.6,2.8,0.6c1.2,0,2.1-0.3,2.8-0.9
		c0.7-0.6,1.1-1.4,1.1-2.4c0-0.5-0.1-0.9-0.2-1.2c-0.2-0.4-0.4-0.8-0.7-1.2c-0.4-0.5-0.9-0.9-1.4-1.3L20,27.5L17.9,26
		c-0.7-0.5-1.3-1.2-1.9-1.8c-0.6-0.6-1-1.3-1.4-2.1c-0.3-0.8-0.5-1.6-0.5-2.6c0-1.2,0.2-2.2,0.7-3.1c0.5-0.9,1.1-1.8,1.9-2.4
		c0.8-0.6,1.8-1.2,2.9-1.6c1.2-0.4,2.4-0.5,3.7-0.5c1.4,0,2.8,0.2,4.1,0.5s2.6,0.9,3.6,1.6l-2.1,3.4c-1.5-1-2.9-1.6-4.6-1.6
		c-1,0-1.8,0.2-2.4,0.8c-0.6,0.5-0.9,1.2-0.9,1.9c0,0.7,0.3,1.4,0.9,1.9c0.5,0.6,1.6,1.4,2.9,2.5l3.4,2.6c0.9,0.8,1.6,1.5,2.2,2.2
		c0.5,0.7,0.9,1.3,1.1,2C31.8,30.8,31.9,31.6,31.9,32.3 M55.9,26c0-2.9-0.6-5.3-1.8-7c-1.2-1.7-2.9-2.6-5-2.6c-2.2,0-4,0.9-5.2,2.7
		c-1.3,1.8-1.9,4.3-1.9,7.4c0,3,0.6,5.4,1.9,7.2c1.2,1.8,3,2.6,5.2,2.6c1.3,0,2.4-0.3,3.3-1c0.9-0.7,1.6-1.6,2.1-2.6
		c0.6-1.1,0.9-2.2,1.1-3.4C55.9,28.2,55.9,27,55.9,26 M63.5,25.7c0,2.2-0.3,4.1-1,5.9c-0.6,1.8-1.6,3.3-2.7,4.7
		c-1.2,1.3-2.6,2.4-4.2,3.1c-1.6,0.8-3.3,1.1-5.2,1.1c-0.8,0-1.6-0.1-2.3-0.2c-0.7-0.2-1.4-0.4-2.1-0.7c-0.6-0.3-1.3-0.8-1.9-1.3
		c-0.7-0.6-1.4-1.3-2-2v17.3h-7V12.7h7v4c1.2-1.6,2.6-2.8,4.1-3.5c1.5-0.8,3.3-1.1,5.2-1.1c1.8,0,3.4,0.3,4.9,1
		c1.4,0.7,2.7,1.6,3.8,2.8c1.1,1.2,1.9,2.6,2.5,4.3C63.2,21.8,63.5,23.7,63.5,25.7 M97.2,39.8v-3.6c-1.4,1.6-2.8,2.6-4.3,3.3
		c-1.5,0.7-3.2,1-5,1c-2.2,0-4-0.4-5.4-1.2c-1.5-0.9-2.6-2.1-3.2-3.8c-0.2-0.4-0.3-0.8-0.4-1.2l-0.2-1.5c-0.1-0.6-0.1-1.3-0.2-1.9
		V12.7h7.2v15.6l0.2,3.2c0.2,0.7,0.4,1.4,0.7,1.9c0.9,1.6,2.3,2.3,4.4,2.3c2.7,0,4.6-1.2,5.6-3.4c0.2-0.6,0.5-1.2,0.5-1.9
		c0.1-1,0.2-2,0.2-3V12.6h7.2v27.3L97.2,39.8L97.2,39.8z M128.1,39.8V24.4l-0.2-3.2c-0.2-0.7-0.4-1.4-0.7-1.9
		c-0.9-1.6-2.3-2.2-4.4-2.2c-1.2,0-2.4,0.3-3.5,0.9c-0.9,0.5-1.7,1.4-2.2,2.5c-0.2,0.6-0.5,1.2-0.5,2c-0.1,0.7-0.2,1.7-0.2,2.9v14.6
		h-7.2V12.7h7.2v3.6c1.4-1.6,2.8-2.6,4.3-3.3c1.5-0.7,3.2-1,5-1c2.2,0,4,0.5,5.4,1.3c1.5,0.9,2.6,2.2,3.2,3.8
		c0.2,0.4,0.3,0.8,0.4,1.2l0.3,1.5c0.1,0.6,0.2,1.3,0.2,1.9v18.1H128.1z"/>
	<path class="st0" d="M140.3,39.8h7.2V25.4l10.8,14.9l6.7-2.3l-10.9-13.6l9.2-9.9l-5.4-2.3l-9.6,11.2h-0.8V0h-7.2L140.3,39.8z
		 M66.6,41.4h7.2V1.5h-7.2V41.4z"/>
	<path id="XMLID_236_" class="st0" d="M171.2,17.9V13l21.8,10.9v4.4l-21.8,10.8v-4.8l16.9-8.3L171.2,17.9z"/>
</g>
</svg>
